{
  "accessors": [
    {
      "bufferView": 2,
      "componentType": 5126,
      "count": 339,
      "max": [
        6.5018234252929688,
        8.708251953125,
        3.3281528949737549
      ],
      "min": [
        4.8115286827087402,
        7.2743520736694336,
        -1.1340063810348511
      ],
      "type": "VEC3"
    },
    {
      "bufferView": 2,
      "byteOffset": 4068,
      "componentType": 5126,
      "count": 339,
      "max": [
        0.99992340803146362,
        0.99984139204025269,
        0.39892151951789856
      ],
      "min": [
        -0.20833562314510345,
        -0.11659946292638779,
        -0.30466166138648987
      ],
      "type": "VEC3"
    },
    {
      "bufferView": 1,
      "componentType": 5126,
      "count": 339,
      "max": [
        1,
        1
      ],
      "min": [
        0,
        0
      ],
      "type": "VEC2"
    },
    {
      "bufferView": 0,
      "componentType": 5125,
      "count": 1728,
      "max": [
        338
      ],
      "min": [
        0
      ],
      "type": "SCALAR"
    },
    {
      "bufferView": 2,
      "byteOffset": 8136,
      "componentType": 5126,
      "count": 8073,
      "max": [
        6.8720417022705078,
        5.8876609802246094,
        4.2017936706542969
      ],
      "min": [
        5.9393033981323242,
        5.6806478500366211,
        -3.8994448184967041
      ],
      "type": "VEC3"
    },
    {
      "bufferView": 2,
      "byteOffset": 105012,
      "componentType": 5126,
      "count": 8073,
      "max": [
        1,
        1,
        1
      ],
      "min": [
        -1,
        -0.046661920845508575,
        -1
      ],
      "type": "VEC3"
    },
    {
      "bufferView": 1,
      "byteOffset": 2712,
      "componentType": 5126,
      "count": 8073,
      "max": [
        0.58843421936035156,
        0.064548835158348083
      ],
      "min": [
        0.39805886149406433,
        0.064548835158348083
      ],
      "type": "VEC2"
    },
    {
      "bufferView": 0,
      "byteOffset": 6912,
      "componentType": 5125,
      "count": 45684,
      "max": [
        8072
      ],
      "min": [
        0
      ],
      "type": "SCALAR"
    },
    {
      "bufferView": 2,
      "byteOffset": 201888,
      "componentType": 5126,
      "count": 15290,
      "max": [
        7.5097665786743164,
        11.683106422424316,
        5.3849263191223145
      ],
      "min": [
        -7.7190485000610352,
        0.48847523331642151,
        -5.3849248886108398
      ],
      "type": "VEC3"
    },
    {
      "bufferView": 2,
      "byteOffset": 385368,
      "componentType": 5126,
      "count": 15290,
      "max": [
        1,
        1,
        1
      ],
      "min": [
        -1,
        -1,
        -1
      ],
      "type": "VEC3"
    },
    {
      "bufferView": 1,
      "byteOffset": 67296,
      "componentType": 5126,
      "count": 15290,
      "max": [
        0.875,
        1
      ],
      "min": [
        0.125,
        0
      ],
      "type": "VEC2"
    },
    {
      "bufferView": 0,
      "byteOffset": 189648,
      "componentType": 5125,
      "count": 90288,
      "max": [
        15289
      ],
      "min": [
        0
      ],
      "type": "SCALAR"
    },
    {
      "bufferView": 2,
      "byteOffset": 568848,
      "componentType": 5126,
      "count": 18104,
      "max": [
        7.5598554611206055,
        6.9851417541503906,
        5.0355782508850098
      ],
      "min": [
        -6.2738304138183594,
        0.013561725616455078,
        -4.8430757522583008
      ],
      "type": "VEC3"
    },
    {
      "bufferView": 2,
      "byteOffset": 786096,
      "componentType": 5126,
      "count": 18104,
      "max": [
        1,
        1,
        1
      ],
      "min": [
        -1,
        -1,
        -1
      ],
      "type": "VEC3"
    },
    {
      "bufferView": 1,
      "byteOffset": 189616,
      "componentType": 5126,
      "count": 18104,
      "max": [
        0.875,
        1
      ],
      "min": [
        0.125,
        0
      ],
      "type": "VEC2"
    },
    {
      "bufferView": 0,
      "byteOffset": 550800,
      "componentType": 5125,
      "count": 102960,
      "max": [
        18103
      ],
      "min": [
        0
      ],
      "type": "SCALAR"
    },
    {
      "bufferView": 2,
      "byteOffset": 1003344,
      "componentType": 5126,
      "count": 25504,
      "max": [
        7.4563198089599609,
        5.8733921051025391,
        4.9990582466125488
      ],
      "min": [
        5.5344018936157227,
        5.5275158882141113,
        -4.7209362983703613
      ],
      "type": "VEC3"
    },
    {
      "bufferView": 2,
      "byteOffset": 1309392,
      "componentType": 5126,
      "count": 25504,
      "max": [
        1,
        1,
        1
      ],
      "min": [
        -1,
        -1,
        -1
      ],
      "type": "VEC3"
    },
    {
      "bufferView": 1,
      "byteOffset": 334448,
      "componentType": 5126,
      "count": 25504,
      "max": [
        0.60958701372146606,
        0.064548835158348083
      ],
      "min": [
        0.38395702838897705,
        0.064548835158348083
      ],
      "type": "VEC2"
    },
    {
      "bufferView": 0,
      "byteOffset": 962640,
      "componentType": 5125,
      "count": 151344,
      "max": [
        25503
      ],
      "min": [
        0
      ],
      "type": "SCALAR"
    },
    {
      "bufferView": 2,
      "byteOffset": 1615440,
      "componentType": 5126,
      "count": 5779,
      "max": [
        7.719050407409668,
        10.625228881835938,
        5.1161084175109863
      ],
      "min": [
        -4.4144220352172852,
        0.75882863998413086,
        -4.2679257392883301
      ],
      "type": "VEC3"
    },
    {
      "bufferView": 2,
      "byteOffset": 1684788,
      "componentType": 5126,
      "count": 5779,
      "max": [
        1,
        1,
        1
      ],
      "min": [
        -1,
        -1,
        -1
      ],
      "type": "VEC3"
    },
    {
      "bufferView": 1,
      "byteOffset": 538480,
      "componentType": 5126,
      "count": 5779,
      "max": [
        0.875,
        1
      ],
      "min": [
        0.125,
        0
      ],
      "type": "VEC2"
    },
    {
      "bufferView": 0,
      "byteOffset": 1568016,
      "componentType": 5125,
      "count": 32040,
      "max": [
        5778
      ],
      "min": [
        0
      ],
      "type": "SCALAR"
    },
    {
      "bufferView": 2,
      "byteOffset": 1754136,
      "componentType": 5126,
      "count": 4855,
      "max": [
        5.1022791862487793,
        6.8253397941589355,
        5.1601057052612305
      ],
      "min": [
        -6.5376448631286621,
        6.4310564994812012,
        -4.8668661117553711
      ],
      "type": "VEC3"
    },
    {
      "bufferView": 2,
      "byteOffset": 1812396,
      "componentType": 5126,
      "count": 4855,
      "max": [
        0.99999374151229858,
        1,
        1
      ],
      "min": [
        -0.99999368190765381,
        -1,
        -1
      ],
      "type": "VEC3"
    },
    {
      "bufferView": 1,
      "byteOffset": 584712,
      "componentType": 5126,
      "count": 4855,
      "max": [
        0.875,
        1
      ],
      "min": [
        0.125,
        0
      ],
      "type": "VEC2"
    },
    {
      "bufferView": 0,
      "byteOffset": 1696176,
      "componentType": 5125,
      "count": 27000,
      "max": [
        4854
      ],
      "min": [
        0
      ],
      "type": "SCALAR"
    },
    {
      "bufferView": 2,
      "byteOffset": 1870656,
      "componentType": 5126,
      "count": 2651,
      "max": [
        6.1237044334411621,
        8.3737096786499023,
        1.5927472114562988
      ],
      "min": [
        5.8666782379150391,
        7.2482829093933105,
        -1.5849152803421021
      ],
      "type": "VEC3"
    },
    {
      "bufferView": 2,
      "byteOffset": 1902468,
      "componentType": 5126,
      "count": 2651,
      "max": [
        0.9969666600227356,
        0.99999725818634033,
        1
      ],
      "min": [
        -0.99999982118606567,
        -0.99999946355819702,
        -1
      ],
      "type": "VEC3"
    },
    {
      "bufferView": 1,
      "byteOffset": 623552,
      "componentType": 5126,
      "count": 2651,
      "max": [
        0.87500005960464478,
        1
      ],
      "min": [
        0.125,
        0
      ],
      "type": "VEC2"
    },
    {
      "bufferView": 0,
      "byteOffset": 1804176,
      "componentType": 5125,
      "count": 15264,
      "max": [
        2650
      ],
      "min": [
        0
      ],
      "type": "SCALAR"
    }
  ],
  "asset": {
    "extras": {
      "author": "Daniele Cocchi (https://sketchfab.com/Cocchi)",
      "license": "CC-BY-4.0 (http://creativecommons.org/licenses/by/4.0/)",
      "source": "https://sketchfab.com/3d-models/pianoforte-low-poly-a03ec4fa1ae44b09b1f6d4792557b862",
      "title": "Pianoforte - Low Poly"
    },
    "generator": "Sketchfab-8.33.0",
    "version": "2.0"
  },
  "bufferViews": [
    {
      "buffer": 0,
      "byteLength": 1865232,
      "byteOffset": 0,
      "name": "floatBufferViews",
      "target": 34963
    },
    {
      "buffer": 0,
      "byteLength": 644760,
      "byteOffset": 1865232,
      "byteStride": 8,
      "name": "floatBufferViews",
      "target": 34962
    },
    {
      "buffer": 0,
      "byteLength": 1934280,
      "byteOffset": 2509992,
      "byteStride": 12,
      "name": "floatBufferViews",
      "target": 34962
    }
  ],
  "buffers": [
    {
      "byteLength": 4444272,
      "uri": "scene.bin"
    }
  ],
  "materials": [
    {
      "doubleSided": true,
      "emissiveFactor": [
        0,
        0,
        0
      ],
      "name": "lambert1",
      "pbrMetallicRoughness": {
        "baseColorFactor": [
          0.40000000000000002,
          0.40000000000000002,
          0.40000000000000002,
          1
        ],
        "metallicFactor": 0,
        "roughnessFactor": 0.59999999999999998
      }
    },
    {
      "doubleSided": true,
      "emissiveFactor": [
        0,
        0,
        0
      ],
      "name": "phong2",
      "pbrMetallicRoughness": {
        "baseColorFactor": [
          0.0096000000000000009,
          0.0096000000000000009,
          0.0096000000000000009,
          1
        ],
        "metallicFactor": 0,
        "roughnessFactor": 0.59999999999999998
      }
    },
    {
      "doubleSided": true,
      "emissiveFactor": [
        0,
        0,
        0
      ],
      "name": "lambert2",
      "pbrMetallicRoughness": {
        "baseColorFactor": [
          0.077600000000000002,
          0.016202879999999999,
          0,
          1
        ],
        "metallicFactor": 0,
        "roughnessFactor": 0.59999999999999998
      }
    },
    {
      "doubleSided": true,
      "emissiveFactor": [
        0,
        0,
        0
      ],
      "name": "lambert3",
      "pbrMetallicRoughness": {
        "baseColorFactor": [
          0.036799999999999999,
          0.0076838400000000008,
          0,
          1
        ],
        "metallicFactor": 0,
        "roughnessFactor": 0.59999999999999998
      }
    },
    {
      "doubleSided": true,
      "emissiveFactor": [
        0,
        0,
        0
      ],
      "name": "phong1",
      "pbrMetallicRoughness": {
        "baseColorFactor": [
          0.80000000000000004,
          0.80000000000000004,
          0.80000000000000004,
          1
        ],
        "metallicFactor": 0,
        "roughnessFactor": 0.59999999999999998
      }
    },
    {
      "doubleSided": true,
      "emissiveFactor": [
        0,
        0,
        0
      ],
      "name": "blinn1",
      "pbrMetallicRoughness": {
        "baseColorFactor": [
          0.23280000000000001,
          0.15271999999999999,
          0,
          1
        ],
        "metallicFactor": 0,
        "roughnessFactor": 0.59999999999999998
      }
    },
    {
      "doubleSided": true,
      "emissiveFactor": [
        0,
        0,
        0
      ],
      "name": "lambert5",
      "pbrMetallicRoughness": {
        "baseColorFactor": [
          0.0096000000000000009,
          0.0096000000000000009,
          0.0096000000000000009,
          1
        ],
        "metallicFactor": 0,
        "roughnessFactor": 0.59999999999999998
      }
    },
    {
      "doubleSided": true,
      "emissiveFactor": [
        0,
        0,
        0
      ],
      "name": "lambert4",
      "pbrMetallicRoughness": {
        "baseColorFactor": [
          0.17120000000000002,
          0.067442639999999998,
          0.040060800000000008,
          1
        ],
        "metallicFactor": 0,
        "roughnessFactor": 0.59999999999999998
      }
    }
  ],
  "meshes": [
    {
      "name": "pPlane4_lambert1_0",
      "primitives": [
        {
          "attributes": {
            "NORMAL": 1,
            "POSITION": 0,
            "TEXCOORD_0": 2
          },
          "indices": 3,
          "material": 0,
          "mode": 4
        }
      ]
    },
    {
      "name": "pPlane4_phong2_0",
      "primitives": [
        {
          "attributes": {
            "NORMAL": 5,
            "POSITION": 4,
            "TEXCOORD_0": 6
          },
          "indices": 7,
          "material": 1,
          "mode": 4
        }
      ]
    },
    {
      "name": "pPlane4_lambert2_0",
      "primitives": [
        {
          "attributes": {
            "NORMAL": 9,
            "POSITION": 8,
            "TEXCOORD_0": 10
          },
          "indices": 11,
          "material": 2,
          "mode": 4
        }
      ]
    },
    {
      "name": "pPlane4_lambert3_0",
      "primitives": [
        {
          "attributes": {
            "NORMAL": 13,
            "POSITION": 12,
            "TEXCOORD_0": 14
          },
          "indices": 15,
          "material": 3,
          "mode": 4
        }
      ]
    },
    {
      "name": "pPlane4_phong1_0",
      "primitives": [
        {
          "attributes": {
            "NORMAL": 17,
            "POSITION": 16,
            "TEXCOORD_0": 18
          },
          "indices": 19,
          "material": 4,
          "mode": 4
        }
      ]
    },
    {
      "name": "pPlane4_blinn1_0",
      "primitives": [
        {
          "attributes": {
            "NORMAL": 21,
            "POSITION": 20,
            "TEXCOORD_0": 22
          },
          "indices": 23,
          "material": 5,
          "mode": 4
        }
      ]
    },
    {
      "name": "pPlane4_lambert5_0",
      "primitives": [
        {
          "attributes": {
            "NORMAL": 25,
            "POSITION": 24,
            "TEXCOORD_0": 26
          },
          "indices": 27,
          "material": 6,
          "mode": 4
        }
      ]
    },
    {
      "name": "pPlane4_lambert4_0",
      "primitives": [
        {
          "attributes": {
            "NORMAL": 29,
            "POSITION": 28,
            "TEXCOORD_0": 30
          },
          "indices": 31,
          "material": 7,
          "mode": 4
        }
      ]
    }
  ],
  "nodes": [
    {
      "children": [
        1
      ],
      "name": "RootNode (gltf orientation matrix)",
      "rotation": [
        -0.70710678118654746,
        -0,
        -0,
        0.70710678118654757
      ]
    },
    {
      "children": [
        2
      ],
      "matrix": [
        -2.2204460492503131e-16,
        -1,
        1.6081226229577292e-16,
        0,
        1,
        -2.2204460492503131e-16,
        -1.6081226229577292e-16,
        0,
        1.6081226229577292e-16,
        1.6081226229577292e-16,
        1,
        0,
        1.9073486328125e-06,
        -1.5735626220703125e-05,
        0,
        1
      ],
      "name": "RootNode (model correction matrix)"
    },
    {
      "children": [
        3
      ],
      "matrix": [
        1,
        0,
        0,
        0,
        0,
        0,
        1,
        0,
        0,
        -1,
        0,
        0,
        0,
        0,
        0,
        1
      ],
      "name": "161ae98007674b09ab223d70c5e36e64.fbx"
    },
    {
      "children": [
        4
      ],
      "name": "RootNode"
    },
    {
      "children": [
        5,
        6,
        7,
        8,
        9,
        10,
        11,
        12
      ],
      "name": "pPlane4"
    },
    {
      "mesh": 0,
      "name": "pPlane4_lambert1_0"
    },
    {
      "mesh": 1,
      "name": "pPlane4_phong2_0"
    },
    {
      "mesh": 2,
      "name": "pPlane4_lambert2_0"
    },
    {
      "mesh": 3,
      "name": "pPlane4_lambert3_0"
    },
    {
      "mesh": 4,
      "name": "pPlane4_phong1_0"
    },
    {
      "mesh": 5,
      "name": "pPlane4_blinn1_0"
    },
    {
      "mesh": 6,
      "name": "pPlane4_lambert5_0"
    },
    {
      "mesh": 7,
      "name": "pPlane4_lambert4_0"
    }
  ],
  "scene": 0,
  "scenes": [
    {
      "name": "OSG_Scene",
      "nodes": [
        0
      ]
    }
  ]
}

